{"accessors":[{"bufferView":0,"byteOffset":0,"componentType":5126,"count":36,"max":[17.545963,0.037849,27.50728],"min":[-17.545963,-0.037849,-27.50728],"normalized":false,"type":"VEC3"},{"bufferView":1,"byteOffset":0,"componentType":5126,"count":36,"max":[0,0,0.000076,-1],"min":[-1,-1,-1,-1],"normalized":false,"type":"VEC4"},{"bufferView":2,"byteOffset":0,"componentType":5126,"count":36,"max":[1,1,1],"min":[-1,-1,-1],"normalized":false,"type":"VEC3"},{"bufferView":3,"byteOffset":0,"componentType":5126,"count":36,"max":[1,1],"min":[0,0],"normalized":false,"type":"VEC2"},{"bufferView":4,"byteOffset":0,"componentType":5125,"count":36,"max":[35],"min":[0],"normalized":false,"type":"SCALAR"},{"bufferView":5,"byteOffset":0,"componentType":5126,"count":1950,"max":[0.5,1,0.5],"min":[-0.5,-1,-0.5],"normalized":false,"type":"VEC3"},{"bufferView":6,"byteOffset":0,"componentType":5126,"count":1950,"max":[1,0,1,1],"min":[-1,-0.000022,-1,1],"normalized":false,"type":"VEC4"},{"bufferView":7,"byteOffset":0,"componentType":5126,"count":1950,"max":[1,1,1],"min":[-1,-1,-1],"normalized":false,"type":"VEC3"},{"bufferView":8,"byteOffset":0,"componentType":5126,"count":1950,"max":[1,1],"min":[0,0],"normalized":false,"type":"VEC2"},{"bufferView":9,"byteOffset":0,"componentType":5125,"count":10368,"max":[1949],"min":[0],"normalized":false,"type":"SCALAR"},{"bufferView":10,"byteOffset":0,"componentType":5126,"count":180,"max":[0.499663,0.977454,0.49966],"min":[-0.484546,-0.976458,-0.481177],"normalized":false,"type":"VEC3"},{"bufferView":11,"byteOffset":0,"componentType":5125,"count":180,"max":[179],"min":[0],"normalized":false,"type":"SCALAR"},{"bufferView":12,"byteOffset":0,"componentType":5126,"count":36,"max":[17.611563,3.147314,0.516276],"min":[-17.611563,-3.147314,-0.516276],"normalized":false,"type":"VEC3"},{"bufferView":13,"byteOffset":0,"componentType":5126,"count":36,"max":[0,0,0.000076,-1],"min":[-1,-1,-1,-1],"normalized":false,"type":"VEC4"},{"bufferView":14,"byteOffset":0,"componentType":5126,"count":36,"max":[1,1,1],"min":[-1,-1,-1],"normalized":false,"type":"VEC3"},{"bufferView":15,"byteOffset":0,"componentType":5126,"count":36,"max":[1,1],"min":[0,0],"normalized":false,"type":"VEC2"},{"bufferView":16,"byteOffset":0,"componentType":5125,"count":36,"max":[35],"min":[0],"normalized":false,"type":"SCALAR"},{"bufferView":17,"byteOffset":0,"componentType":5126,"count":36,"max":[17.611563,3.147314,0.516276],"min":[-17.611563,-3.147314,-0.516276],"normalized":false,"type":"VEC3"},{"bufferView":18,"byteOffset":0,"componentType":5126,"count":36,"max":[0,0,0.000076,-1],"min":[-1,-1,-1,-1],"normalized":false,"type":"VEC4"},{"bufferView":19,"byteOffset":0,"componentType":5126,"count":36,"max":[1,1,1],"min":[-1,-1,-1],"normalized":false,"type":"VEC3"},{"bufferView":20,"byteOffset":0,"componentType":5126,"count":36,"max":[1,1],"min":[0,0],"normalized":false,"type":"VEC2"},{"bufferView":21,"byteOffset":0,"componentType":5125,"count":36,"max":[35],"min":[0],"normalized":false,"type":"SCALAR"},{"bufferView":22,"byteOffset":0,"componentType":5126,"count":36,"max":[0.645523,3.147314,28.530466],"min":[-0.645523,-3.147314,-28.530466],"normalized":false,"type":"VEC3"},{"bufferView":23,"byteOffset":0,"componentType":5126,"count":36,"max":[0,0,0.000076,-1],"min":[-1,-1,-1,-1],"normalized":false,"type":"VEC4"},{"bufferView":24,"byteOffset":0,"componentType":5126,"count":36,"max":[1,1,1],"min":[-1,-1,-1],"normalized":false,"type":"VEC3"},{"bufferView":25,"byteOffset":0,"componentType":5126,"count":36,"max":[1,1],"min":[0,0],"normalized":false,"type":"VEC2"},{"bufferView":26,"byteOffset":0,"componentType":5125,"count":36,"max":[35],"min":[0],"normalized":false,"type":"SCALAR"},{"bufferView":27,"byteOffset":0,"componentType":5126,"count":36,"max":[0.645523,3.147314,28.530466],"min":[-0.645523,-3.147314,-28.530466],"normalized":false,"type":"VEC3"},{"bufferView":28,"byteOffset":0,"componentType":5126,"count":36,"max":[0,0,0.000076,-1],"min":[-1,-1,-1,-1],"normalized":false,"type":"VEC4"},{"bufferView":29,"byteOffset":0,"componentType":5126,"count":36,"max":[1,1,1],"min":[-1,-1,-1],"normalized":false,"type":"VEC3"},{"bufferView":30,"byteOffset":0,"componentType":5126,"count":36,"max":[1,1],"min":[0,0],"normalized":false,"type":"VEC2"},{"bufferView":31,"byteOffset":0,"componentType":5125,"count":36,"max":[35],"min":[0],"normalized":false,"type":"SCALAR"}],"asset":{"generator":"Godot Engine v4.1.3.stable.official@f06b6836a9ecfd0e6ec96d8bcf0fe9c9bc10dcbf","version":"2.0"},"bufferViews":[{"buffer":0,"byteLength":432,"byteOffset":0},{"buffer":0,"byteLength":576,"byteOffset":432},{"buffer":0,"byteLength":432,"byteOffset":1008},{"buffer":0,"byteLength":288,"byteOffset":1440},{"buffer":0,"byteLength":144,"byteOffset":1728},{"buffer":0,"byteLength":23400,"byteOffset":1872},{"buffer":0,"byteLength":31200,"byteOffset":25272},{"buffer":0,"byteLength":23400,"byteOffset":56472},{"buffer":0,"byteLength":15600,"byteOffset":79872},{"buffer":0,"byteLength":41472,"byteOffset":95472},{"buffer":0,"byteLength":2160,"byteOffset":136944},{"buffer":0,"byteLength":720,"byteOffset":139104},{"buffer":0,"byteLength":432,"byteOffset":139824},{"buffer":0,"byteLength":576,"byteOffset":140256},{"buffer":0,"byteLength":432,"byteOffset":140832},{"buffer":0,"byteLength":288,"byteOffset":141264},{"buffer":0,"byteLength":144,"byteOffset":141552},{"buffer":0,"byteLength":432,"byteOffset":141696},{"buffer":0,"byteLength":576,"byteOffset":142128},{"buffer":0,"byteLength":432,"byteOffset":142704},{"buffer":0,"byteLength":288,"byteOffset":143136},{"buffer":0,"byteLength":144,"byteOffset":143424},{"buffer":0,"byteLength":432,"byteOffset":143568},{"buffer":0,"byteLength":576,"byteOffset":144000},{"buffer":0,"byteLength":432,"byteOffset":144576},{"buffer":0,"byteLength":288,"byteOffset":145008},{"buffer":0,"byteLength":144,"byteOffset":145296},{"buffer":0,"byteLength":432,"byteOffset":145440},{"buffer":0,"byteLength":576,"byteOffset":145872},{"buffer":0,"byteLength":432,"byteOffset":146448},{"buffer":0,"byteLength":288,"byteOffset":146880},{"buffer":0,"byteLength":144,"byteOffset":147168}],"buffers":[{"byteLength":147312,"uri":"world0.bin"}],"cameras":[{"perspective":{"yfov":1.30899691581726,"zfar":4000,"znear":0.0500000007450581},"type":"perspective"}],"extensions":{"KHR_lights_punctual":{"lights":[{"color":[1,1,1],"intensity":1,"range":340282346638528860000000000000000000000,"type":"directional"}]},"OMI_collider":{"colliders":[{"mesh":2,"type":"hull"}]}},"extensionsUsed":["KHR_lights_punctual","OMI_collider","OMI_physics_body"],"materials":[{"extensions":{},"pbrMetallicRoughness":{"baseColorFactor":[0.99999988079071,0.99999988079071,0.99999988079071,1],"metallicFactor":0,"roughnessFactor":1}},{"extensions":{},"pbrMetallicRoughness":{"baseColorFactor":[0.99999988079071,0.99999988079071,0.99999988079071,1],"metallicFactor":0,"roughnessFactor":1}},{"extensions":{},"pbrMetallicRoughness":{"baseColorFactor":[0.99999988079071,0.99999988079071,0.99999988079071,1],"metallicFactor":0,"roughnessFactor":1}},{"extensions":{},"pbrMetallicRoughness":{"baseColorFactor":[0.99999988079071,0.99999988079071,0.99999988079071,1],"metallicFactor":0,"roughnessFactor":1}},{"extensions":{},"pbrMetallicRoughness":{"baseColorFactor":[0.99999988079071,0.99999988079071,0.99999988079071,1],"metallicFactor":0,"roughnessFactor":1}},{"extensions":{},"pbrMetallicRoughness":{"baseColorFactor":[0.99999988079071,0.99999988079071,0.99999988079071,1],"metallicFactor":0,"roughnessFactor":1}}],"meshes":[{"extras":{"targetNames":[]},"primitives":[{"attributes":{"NORMAL":2,"POSITION":0,"TANGENT":1,"TEXCOORD_0":3},"indices":4,"material":0,"mode":4}]},{"extras":{"targetNames":[]},"primitives":[{"attributes":{"NORMAL":7,"POSITION":5,"TANGENT":6,"TEXCOORD_0":8},"indices":9,"material":1,"mode":4}]},{"extras":{"targetNames":[]},"primitives":[{"attributes":{"POSITION":10},"indices":11,"mode":4}]},{"extras":{"targetNames":[]},"primitives":[{"attributes":{"NORMAL":14,"POSITION":12,"TANGENT":13,"TEXCOORD_0":15},"indices":16,"material":2,"mode":4}]},{"extras":{"targetNames":[]},"primitives":[{"attributes":{"NORMAL":19,"POSITION":17,"TANGENT":18,"TEXCOORD_0":20},"indices":21,"material":3,"mode":4}]},{"extras":{"targetNames":[]},"primitives":[{"attributes":{"NORMAL":24,"POSITION":22,"TANGENT":23,"TEXCOORD_0":25},"indices":26,"material":4,"mode":4}]},{"extras":{"targetNames":[]},"primitives":[{"attributes":{"NORMAL":29,"POSITION":27,"TANGENT":28,"TEXCOORD_0":30},"indices":31,"material":5,"mode":4}]}],"nodes":[{"children":[1,2,3,4,9],"extensions":{},"name":"World"},{"extensions":{"KHR_lights_punctual":{"light":0}},"name":"DirectionalLight3D","rotation":[-0.12941072881222,0.836515307426453,0.482963681221008,0.22414530813694]},{"extensions":{},"name":"WorldEnvironment"},{"extensions":{},"mesh":0,"name":"CSGBox3D2"},{"children":[5,6,7],"extensions":{"OMI_physics_body":{"type":"character"}},"name":"Player"},{"extensions":{},"mesh":1,"name":"MeshInstance3D","translation":[0,1,0]},{"extensions":{"OMI_collider":{"collider":0}},"name":"CollisionShape3D","translation":[0,1,0]},{"children":[8],"extensions":{},"name":"Head"},{"camera":0,"extensions":{},"name":"Camera3D","translation":[0,1.44255912303925,0]},{"children":[10,11,12,13],"extensions":{},"name":"Objects"},{"extensions":{},"mesh":3,"name":"Wall 12","translation":[-0.03108334541321,3.19391322135925,26.9467239379883]},{"extensions":{},"mesh":4,"name":"Wall 22","translation":[-0.02785897254944,3.06978344917297,-26.9320869445801]},{"extensions":{},"mesh":5,"name":"Wall 32","translation":[-17.7951622009277,3.29936456680298,-0.91958236694336]},{"extensions":{},"mesh":6,"name":"Wall 42","translation":[18.038932800293,3.29936456680298,-0.91958236694336]}],"scene":0,"scenes":[{"nodes":[0]}]}